<?xml version="1.0" encoding="UTF-8"?>
<svg version="1.1" xmlns="http://www.w3.org/2000/svg" width="128" height="128" viewBox="0 0 1024 1024" preserveAspectRatio="xMidYMid meet">
	<rect width="1024" height="1024" fill="#ffffff"/>
<path d="M0 0 C2.61835274 -0.00299663 5.23670504 -0.00640031 7.85505676 -0.01017761 C14.19876767 -0.01843102 20.54246929 -0.02123003 26.88618512 -0.02178999 C32.05059849 -0.02226768 37.21500883 -0.02433494 42.37942123 -0.02749062 C57.07021677 -0.03628261 71.76100504 -0.04091226 86.45180322 -0.04016014 C87.24130679 -0.04012019 88.03081036 -0.04008023 88.84423828 -0.04003906 C89.63472261 -0.03999818 90.42520694 -0.0399573 91.23964535 -0.03991518 C104.03793969 -0.0395091 116.83620456 -0.04907289 129.63449039 -0.06317743 C142.82344348 -0.07759608 156.01238225 -0.08444461 169.20134342 -0.08358365 C176.58672704 -0.08325358 183.97207976 -0.08591679 191.35745621 -0.0967617 C197.64693602 -0.10593933 203.93637092 -0.10798315 210.22585459 -0.10125228 C213.42446709 -0.09802326 216.62297739 -0.09891869 219.8215847 -0.10660553 C250.61452188 -0.17575028 278.84677354 1.29316293 303.93701172 21.14526367 C304.69240234 21.73694336 305.44779297 22.32862305 306.22607422 22.93823242 C323.10442505 37.00352478 332.24809148 57.6510226 334.22152066 79.2607317 C334.67144861 87.42922748 334.60796846 95.60119086 334.56811523 103.77905273 C334.57050863 106.49346699 334.580369 109.2078435 334.58979797 111.92224121 C334.60800836 118.47645042 334.59977599 125.03035805 334.58170975 131.58455732 C334.56758765 136.91716916 334.56381137 142.24970006 334.56715202 147.5823288 C334.56762947 148.34612564 334.56810691 149.10992249 334.56859882 149.8968647 C334.56962531 151.44926107 334.57068068 153.00165742 334.57176458 154.55405375 C334.58029742 168.22611836 334.56376583 181.89803884 334.53393555 195.57006836 C334.50508376 208.7940882 334.49802981 222.01790066 334.51342773 235.24194336 C334.530237 249.6975523 334.53417788 264.1530632 334.51671737 278.60867476 C334.51487327 280.1536037 334.51303854 281.69853265 334.5112133 283.24346161 C334.51030121 284.00329742 334.50938912 284.76313322 334.50844939 285.54599436 C334.50287504 290.86576547 334.50612179 296.18548821 334.51275826 301.50525665 C334.52053676 307.99715878 334.51357732 314.48885781 334.48858321 320.98071936 C334.47619412 324.28433058 334.47200092 327.58736866 334.48112488 330.89102936 C334.52310262 348.07993211 334.06138567 364.49657644 326.12451172 380.14526367 C325.77831787 380.85110596 325.43212402 381.55694824 325.07543945 382.28417969 C322.29384056 387.79206339 319.06665233 392.54994018 314.93701172 397.14526367 C314.24865234 397.97413086 313.56029297 398.80299805 312.85107422 399.65698242 C300.08614424 414.63897919 280.73527383 424.46836284 261.11640668 426.42683297 C253.59341971 427.02777629 246.13768682 427.28992482 238.59246826 427.27897644 C237.42137583 427.281242 236.2502834 427.28350755 235.04370332 427.28584176 C231.83363269 427.29103006 228.62359781 427.29183478 225.41352439 427.29064739 C221.93554529 427.29044154 218.45757425 427.29597946 214.979599 427.30070496 C208.1810873 427.30897219 201.38258428 427.311758 194.58406797 427.31231733 C189.05248623 427.3127943 183.52090732 427.31485804 177.98932648 427.31801796 C162.27037658 427.32681331 146.55143349 427.33143902 130.83248112 427.33068749 C129.98702993 427.33064753 129.14157874 427.33060757 128.27050781 427.33056641 C127.42401217 427.33052553 126.57751653 427.33048464 125.7053695 427.33044253 C111.99246637 427.33003623 98.27959072 427.33960461 84.56669554 427.35370477 C70.45121505 427.3681032 56.33574792 427.37497307 42.2202599 427.374111 C34.30959616 427.37378025 26.39896123 427.3764733 18.48830414 427.38728905 C11.75290114 427.39643976 5.01754004 427.39853201 -1.71786651 427.39177962 C-5.14684343 427.3885375 -8.57574019 427.38837307 -12.00470924 427.39713287 C-43.02667949 427.46182908 -70.13138543 425.17742254 -93.12548828 402.30151367 C-109.31138839 385.36083066 -116.21425395 363.02368459 -116.2101593 339.98454285 C-116.21383599 338.86828516 -116.21751268 337.75202747 -116.22130078 336.60194379 C-116.23230466 332.86532111 -116.23617591 329.12872628 -116.23999023 325.39208984 C-116.24625749 322.71093584 -116.25289224 320.02978476 -116.25990295 317.34863281 C-116.27961918 309.30541958 -116.2897282 301.26220519 -116.29863074 293.21897385 C-116.30302228 289.42330324 -116.3083869 285.62763401 -116.31361961 281.83196449 C-116.33062836 269.20008605 -116.34511944 256.56820844 -116.35236835 243.9363203 C-116.35427799 240.66197394 -116.35619836 237.38762759 -116.3581543 234.11328125 C-116.35863804 233.29954229 -116.35912178 232.48580332 -116.35962018 231.6474056 C-116.36790903 218.48441949 -116.39322814 205.32152458 -116.42573497 192.15857824 C-116.45889825 178.61845933 -116.47682553 165.07838661 -116.4800126 151.5382269 C-116.48216932 143.9465359 -116.49079421 136.35497784 -116.51647377 128.76332664 C-116.538308 122.2938414 -116.54616938 115.82452141 -116.53650699 109.3550035 C-116.53199846 106.06151983 -116.53588036 102.76844316 -116.55326843 99.47499275 C-116.69716917 70.58379026 -112.04240568 46.48086813 -91.06298828 25.14526367 C-90.37591797 24.44530273 -89.68884766 23.7453418 -88.98095703 23.02416992 C-64.58537701 -0.19462887 -31.48519447 -0.00721882 0 0 Z M59.19970703 77.15356445 C56.75550481 77.17913142 54.31714766 77.24349019 51.87451172 77.33276367 C51.15626221 77.35032715 50.4380127 77.36789062 49.69799805 77.38598633 C44.7400282 77.66402544 41.78418679 79.05603951 37.93701172 82.14526367 C33.03438369 88.73845309 33.6208772 96.63510955 33.31201172 104.52026367 C33.26044922 105.63143555 33.20888672 106.74260742 33.15576172 107.88745117 C32.93018645 113.46048714 32.87812244 118.66116546 33.93701172 124.14526367 C38.02104152 123.86288633 42.10404666 123.56761004 46.18701172 123.27026367 C47.32654297 123.19163086 48.46607422 123.11299805 49.64013672 123.03198242 C62.04609277 123.0343138 62.04609277 123.0343138 72.93701172 119.14526367 C73.03643978 117.02218214 73.06670356 114.89566695 73.06201172 112.77026367 C73.06458984 111.6075293 73.06716797 110.44479492 73.06982422 109.24682617 C73.07808015 106.10954944 73.07808015 106.10954944 71.93701172 103.14526367 C68.4959597 101.3537629 65.48067971 100.86609413 61.63623047 100.73120117 C60.65976562 100.6925293 59.68330078 100.65385742 58.67724609 100.61401367 C57.66984375 100.58307617 56.66244141 100.55213867 55.62451172 100.52026367 C54.0844043 100.46225586 54.0844043 100.46225586 52.51318359 100.40307617 C49.98796907 100.3091147 47.4627558 100.22344828 44.93701172 100.14526367 C44.93701172 98.49526367 44.93701172 96.84526367 44.93701172 95.14526367 C60.26039993 93.48563277 75.53272202 92.61688225 90.93701172 92.14526367 C90.82653462 87.53535565 90.53659435 84.09717837 88.04248047 80.13745117 C83.5201713 77.23634718 79.52858572 77.31996433 74.24951172 77.27026367 C72.72596069 77.23412964 72.72596069 77.23412964 71.17163086 77.19726562 C67.18026018 77.12568415 63.19150249 77.14145947 59.19970703 77.15356445 Z M102.93701172 93.14526367 C103.25154297 93.76530273 103.56607422 94.3853418 103.89013672 95.02416992 C107.67610967 102.85839708 109.90423419 110.73024609 111.93701172 119.14526367 C115.94971685 119.76902567 119.81209306 120.27026242 123.87451172 120.20776367 C125.03273438 120.19422852 125.03273438 120.19422852 126.21435547 120.18041992 C126.78283203 120.16881836 127.35130859 120.1572168 127.93701172 120.14526367 C127.2066403 110.59277427 125.86006495 100.5957869 119.18701172 93.20776367 C113.4859648 90.51560263 108.63179291 90.72498167 102.93701172 93.14526367 Z M2.65966797 101.18432617 C-3.58356978 108.29114102 -4.52247234 116.94589426 -5.06298828 126.14526367 C-4.76715208 127.48741487 -4.44162837 128.82408216 -4.06298828 130.14526367 C0.08388914 129.50601819 4.22930868 128.85777109 8.37451172 128.20776367 C10.15051758 127.93416016 10.15051758 127.93416016 11.96240234 127.6550293 C13.08710938 127.4777832 14.21181641 127.30053711 15.37060547 127.11791992 C16.41273193 126.95557861 17.4548584 126.7932373 18.52856445 126.62597656 C20.87871802 126.38856557 20.87871802 126.38856557 21.93701172 125.14526367 C22.02492147 122.8537495 22.0439521 120.55953843 22.03466797 118.26635742 C22.03325302 117.57969498 22.03183807 116.89303253 22.03038025 116.18556213 C22.02476651 113.98458566 22.01221179 111.78370958 21.99951172 109.58276367 C21.99449848 108.09383285 21.98993527 106.60490043 21.98583984 105.1159668 C21.97479265 101.45903292 21.95751885 97.80215809 21.93701172 94.14526367 C13.9806807 94.14526367 8.4695943 95.52455698 2.65966797 101.18432617 Z M137.93701172 116.14526367 C138.26701172 117.79526367 138.59701172 119.44526367 138.93701172 121.14526367 C141.6657748 121.48222229 144.39494335 121.81494796 147.12451172 122.14526367 C148.27790039 122.28834961 148.27790039 122.28834961 149.45458984 122.43432617 C153.30629983 122.89719261 157.04872023 123.26993835 160.93701172 123.14526367 C160.56425385 120.44276916 160.15252323 119.34591232 158.12451172 117.45776367 C154.46556039 115.26239287 151.15658799 115.00739911 146.93701172 115.02026367 C146.09138672 115.01768555 145.24576172 115.01510742 144.37451172 115.01245117 C142.09002228 115.13692656 140.12709597 115.5064891 137.93701172 116.14526367 Z M-12.31298828 142.27026367 C-13.02967682 142.39237213 -13.74636536 142.51448059 -14.48477173 142.64028931 C-16.49726379 142.98705276 -18.50678349 143.35093527 -20.51611328 143.71557617 C-21.64178711 143.91940918 -22.76746094 144.12324219 -23.92724609 144.33325195 C-29.8211318 145.85949486 -33.76771572 147.98267 -37.06298828 153.14526367 C-40.38044116 159.8899381 -42.12568656 166.7118114 -43.06298828 174.14526367 C-43.15128906 174.81750977 -43.23958984 175.48975586 -43.33056641 176.18237305 C-44.36033254 185.37723521 -44.21362019 194.61336487 -44.19335938 203.85229492 C-44.18798818 206.77031621 -44.19333582 209.68818449 -44.19970703 212.60620117 C-44.19904636 214.48640984 -44.19776543 216.36661841 -44.19580078 218.24682617 C-44.19782501 219.10643951 -44.19984924 219.96605286 -44.20193481 220.85171509 C-44.18342016 225.69575239 -43.88324658 230.36914024 -43.17941284 235.16439819 C-42.9932241 238.33224219 -44.15455638 241.13608299 -45.06298828 244.14526367 C-44.98695855 248.02278017 -44.59057057 249.55373201 -42.00048828 252.45776367 C-38.21014732 254.63519358 -35.40401772 254.85095659 -31.06298828 255.14526367 C-30.91603516 254.23905273 -30.76908203 253.3328418 -30.61767578 252.39916992 C-29.01092041 243.67282608 -27.20078925 236.25352456 -20.03564453 230.52416992 C-13.88542914 226.4812909 -8.36088972 225.4913717 -1.06298828 226.14526367 C5.24104004 227.53480638 10.3289979 229.64003227 14.27685547 234.94604492 C18.64800956 241.8765414 18.57421654 246.28709498 19.93701172 255.14526367 C32.47701172 255.14526367 45.01701172 255.14526367 57.93701172 255.14526367 C58.92701172 250.52526367 59.91701172 245.90526367 60.93701172 241.14526367 C64.83340913 234.04516172 68.22556503 230.33663423 75.62451172 226.89526367 C84.24069556 224.94442959 92.25390725 225.60831622 99.93701172 230.14526367 C107.61295845 236.21999141 109.67831958 245.90172202 110.93701172 255.14526367 C126.83602964 255.21543825 142.73500554 255.26829314 158.63414001 255.30070019 C166.01688829 255.31614931 173.39954017 255.33720126 180.78222656 255.37158203 C187.21923515 255.40154447 193.65617389 255.42085288 200.09325027 255.42752916 C203.49961242 255.43142988 206.90577482 255.44055588 210.31207275 255.46245384 C214.12076623 255.48425686 217.92904704 255.4872293 221.73779297 255.48583984 C223.41986092 255.50201859 223.41986092 255.50201859 225.13591003 255.51852417 C231.44860387 255.49363407 236.212441 254.8777761 241.93701172 252.14526367 C244.0676547 249.67371782 243.96159053 248.52213882 243.74951172 245.27026367 C243.08374779 242.09918721 243.08374779 242.09918721 241.31201172 239.45776367 C239.57387339 235.27043044 240.06261093 232.43200349 240.60107422 228.00463867 C241.89517187 216.98976096 241.26805239 206.14412501 234.49951172 197.01635742 C230.50258677 192.23003979 226.88032298 190.58795898 220.92529297 189.24682617 C217.93613151 187.59074851 217.94632064 185.38013508 216.93701172 182.14526367 C215.19033237 178.94663185 213.22162485 175.89628129 211.24951172 172.83276367 C210.71003906 171.98697754 210.17056641 171.14119141 209.61474609 170.26977539 C205.99764909 164.65198518 202.21666165 159.28084358 197.93701172 154.14526367 C197.31826172 153.27901367 196.69951172 152.41276367 196.06201172 151.52026367 C179.31086203 132.79839049 149.98475702 133.09912443 126.66943359 131.65258789 C122.42699953 131.42060653 118.18381169 131.27039674 113.93701172 131.14526367 C113.02016602 131.11658203 112.10332031 131.08790039 111.15869141 131.05834961 C70.08489543 129.96026843 28.0983652 135.26263289 -12.31298828 142.27026367 Z M-12.06298828 241.14526367 C-15.7938164 246.3960588 -16.49672568 250.74763697 -16.06298828 257.14526367 C-14.78649876 261.40022874 -13.88517082 263.52862677 -10.31298828 266.20776367 C-6.15289728 267.40778992 -4.02523436 266.78996959 -0.06298828 265.14526367 C3.49654782 262.29763479 4.01526848 259.19526891 4.78466797 254.85229492 C5.06292986 249.90779509 3.69563413 245.28704962 0.53857422 241.44213867 C-3.12994881 238.47152978 -8.36595183 238.24044931 -12.06298828 241.14526367 Z M75.93701172 243.14526367 C72.70773575 248.73964316 72.56328172 253.80362963 74.14404297 259.97338867 C75.2232774 262.9293214 76.27370528 264.44370678 78.93701172 266.14526367 C83.51433319 267.53836151 86.6299414 267.20516687 90.93701172 265.14526367 C94.44889948 261.7282918 95.74898464 259.0339678 95.93701172 254.14526367 C95.46773448 249.41059152 94.57625451 246.02193951 91.74951172 242.14526367 C85.88180039 237.97266895 81.14995672 238.16927071 75.93701172 243.14526367 Z M-16.06298828 279.14526367 C-17.02301758 279.34925781 -17.98304688 279.55325195 -18.97216797 279.76342773 C-43.45153291 285.04566056 -43.45153291 285.04566056 -65.06298828 297.14526367 C-66.24809911 299.91662261 -66.24809911 299.91662261 -66.06298828 303.14526367 C-66.07458984 303.9315918 -66.08619141 304.71791992 -66.09814453 305.52807617 C-66.12236936 307.73599628 -66.10713734 309.93781062 -66.06298828 312.14526367 C-61.94113813 311.57301486 -58.43258943 310.12712163 -54.63452148 308.51733398 C-11.89427036 290.4680307 27.05979132 290.83338062 70.93701172 305.14526367 C89.03033723 310.89559431 105.32856262 315.35601812 124.43701172 315.52026367 C126.21712646 315.54141235 126.21712646 315.54141235 128.03320312 315.56298828 C144.29721378 315.47487576 158.93419587 311.15949024 174.24951172 306.20776367 C192.28554926 300.37755527 209.90160447 295.98594672 228.84179688 294.50683594 C231.12617967 294.32773269 233.40834646 294.12924632 235.69091797 293.9284668 C243.71188461 293.25344798 243.71188461 293.25344798 246.93701172 293.14526367 C247.26701172 293.47526367 247.59701172 293.80526367 247.93701172 294.14526367 C249.52175835 294.43139068 251.11691964 294.66032442 252.71435547 294.86401367 C253.70371094 294.99163086 254.69306641 295.11924805 255.71240234 295.25073242 C256.75589844 295.38092773 257.79939453 295.51112305 258.87451172 295.64526367 C259.88320313 295.77545898 260.89189453 295.9056543 261.93115234 296.03979492 C268.25739255 296.84636 274.58769863 297.5475158 280.93701172 298.14526367 C280.27701172 297.81526367 279.61701172 297.48526367 278.93701172 297.14526367 C278.93701172 296.48526367 278.93701172 295.82526367 278.93701172 295.14526367 C249.58943189 277.41351754 212.49220765 270.36419603 178.71435547 278.43334961 C170.7164805 280.48343781 162.7464609 282.64911085 154.80859375 284.92041016 C128.41310644 292.4373804 105.84811156 290.58205652 79.62417603 283.6862793 C48.4387823 275.50468813 15.83950496 272.18404286 -16.06298828 279.14526367 Z M-25.06298828 316.14526367 C-25.73958496 316.2897998 -26.41618164 316.43433594 -27.11328125 316.58325195 C-39.46934416 319.33887675 -56.82587654 323.90815193 -66.06298828 333.14526367 C-66.13557774 335.3316582 -66.14672611 337.52026756 -66.12548828 339.70776367 C-66.11646484 340.90530273 -66.10744141 342.1028418 -66.09814453 343.33666992 C-66.08654297 344.26350586 -66.07494141 345.1903418 -66.06298828 346.14526367 C-65.51513672 345.97510742 -64.96728516 345.80495117 -64.40283203 345.62963867 C-61.62852887 344.78155901 -58.8468594 343.96140477 -56.06298828 343.14526367 C-54.97373047 342.82041992 -53.88447266 342.49557617 -52.76220703 342.16088867 C-12.27966733 330.65765335 25.29767622 337.54462908 64.31201172 350.77026367 C76.75967614 354.98919152 88.92329776 359.10077814 101.93701172 361.14526367 C102.64817139 361.2713501 103.35933105 361.39743652 104.09204102 361.52734375 C135.22487846 366.38239138 163.66626266 358.29299125 192.71107483 348.28358459 C212.9917607 341.29539888 231.90179059 335.94708363 253.49951172 335.95776367 C254.16565491 335.95703857 254.8317981 335.95631348 255.51812744 335.95556641 C265.14654976 335.95672733 274.4769714 336.28644873 283.93701172 338.14526367 C284.01803232 336.04172872 284.07621079 333.93730415 284.12451172 331.83276367 C284.17671875 330.07512695 284.17671875 330.07512695 284.22998047 328.28198242 C284.18167039 325.2541621 284.18167039 325.2541621 282.86669922 323.41479492 C261.96220983 309.66184138 229.42617686 310.51044788 205.93701172 315.14526367 C192.55077039 318.07076774 179.43373752 322.08041706 166.41967773 326.34106445 C152.53975028 330.77791691 139.20120532 332.72245387 124.68701172 332.58276367 C123.96690918 332.57839294 123.24680664 332.57402222 122.50488281 332.56951904 C102.81872941 332.40496087 85.53595395 327.67590658 66.88232422 321.76293945 C37.24988152 312.41062499 5.51675637 309.60791009 -25.06298828 316.14526367 Z " fill="#00A1B7" transform="translate(403.06298828125,275.854736328125)"/>
<path d="M0 0 C1.96404785 0.0616333 1.96404785 0.0616333 3.96777344 0.12451172 C5.36266781 0.18104593 6.7575244 0.23851924 8.15234375 0.296875 C9.59016534 0.35052872 11.0279909 0.404076 12.46582031 0.45751953 C55.84349382 2.15935908 55.84349382 2.15935908 65.16015625 9.9296875 C69.09540336 14.2473068 72.01216711 19.27307478 74.99951172 24.26611328 C77.18954852 27.84294454 79.60543811 31.28078854 81.97265625 34.7421875 C83.29316545 37.46631486 82.94716461 38.25452146 82.08984375 41.046875 C72.11885308 40.87814583 62.14850507 40.68841193 52.17843246 40.47182083 C47.54892728 40.37190997 42.91951299 40.27925186 38.28955078 40.203125 C33.8216851 40.12939711 29.35458146 40.03667526 24.88736725 39.93074799 C23.1826641 39.89367102 21.47779763 39.86345075 19.77285004 39.84018707 C17.38520713 39.80643877 14.99930711 39.74837723 12.61230469 39.68457031 C11.90667892 39.68024994 11.20105316 39.67592957 10.4740448 39.67147827 C7.14860906 39.55784467 5.37559333 39.2713423 2.72740173 37.19108582 C0.67111464 34.49859305 -0.81451832 31.73926017 -2.328125 28.70703125 C-2.63083817 28.10306015 -2.93355133 27.49908905 -3.24543762 26.8768158 C-3.88030419 25.60543052 -4.51123979 24.33207548 -5.13842773 23.05688477 C-6.09544152 21.11387154 -7.06719078 19.17877323 -8.04101562 17.24414062 C-13.19013602 6.89388177 -13.19013602 6.89388177 -13.91015625 2.046875 C-9.05676753 0.46962987 -5.15812073 -0.17566245 0 0 Z " fill="#00A2B8" transform="translate(526.91015625,421.953125)"/>
<path d="M0 0 C-0.54301758 0.20044922 -1.08603516 0.40089844 -1.64550781 0.60742188 C-20.82164997 7.76500012 -37.05379056 16.72801738 -49 34 C-49.78503906 35.11955078 -49.78503906 35.11955078 -50.5859375 36.26171875 C-59.40629018 49.80566131 -62.31855871 65.86220852 -62.26069641 81.77581787 C-62.26452196 82.90986061 -62.26834751 84.04390336 -62.27228898 85.21231103 C-62.28254835 88.98501331 -62.27864025 92.75756138 -62.2746582 96.53027344 C-62.27791758 99.24644405 -62.28412903 101.96260626 -62.29014587 104.67877197 C-62.30285384 111.27502976 -62.3046914 117.87124676 -62.30234561 124.46751472 C-62.30055767 129.83373765 -62.30232227 135.19994828 -62.30657005 140.56616974 C-62.30716524 141.33189893 -62.30776043 142.09762812 -62.30837366 142.88656123 C-62.3095855 144.44250439 -62.31079963 145.99844754 -62.31201603 147.5543907 C-62.32287684 162.12588995 -62.32073618 176.69736602 -62.31463119 191.26886657 C-62.30946509 204.572641 -62.32071197 217.87634214 -62.33972941 231.18010208 C-62.35914515 244.86836988 -62.36735716 258.55660308 -62.36360615 272.24488473 C-62.36169955 279.91854785 -62.3641286 287.59214865 -62.37832069 295.26580048 C-62.39028333 301.79967553 -62.39158514 308.3334499 -62.37953053 314.86732647 C-62.37367537 318.19485639 -62.3741011 321.52205316 -62.38453293 324.84959412 C-62.58301519 348.65586702 -62.58301519 348.65586702 -55.75 371.25 C-55.44916504 371.90911377 -55.14833008 372.56822754 -54.83837891 373.24731445 C-51.01400603 381.41160553 -46.59455415 388.8051158 -40 395 C-40 395.66 -40 396.32 -40 397 C-39.401875 397.27457031 -38.80375 397.54914063 -38.1875 397.83203125 C-36.0926337 398.95054022 -34.70950024 400.0625844 -33 401.6875 C-17.87801574 414.85101071 1.20367661 419.31167075 20.74992371 419.2784729 C21.98847164 419.2842653 23.22701957 419.2900577 24.50309926 419.29602563 C27.91018082 419.31000305 31.31706594 419.31524927 34.72416174 419.31667423 C38.40977957 419.32039054 42.09535317 419.33555694 45.78094482 419.34928894 C52.1562929 419.37149594 58.5316251 419.38654854 64.9070034 419.39665604 C74.12457279 419.41128001 83.34208684 419.43682713 92.55962364 419.46498732 C107.5167038 419.51038795 122.47379196 419.54703049 137.4309082 419.578125 C151.95501102 419.60833816 166.4790943 419.6427011 181.00317383 419.68261719 C181.89936954 419.68507874 182.79556525 419.68754028 183.71891841 419.69007643 C188.21514706 419.70245156 192.71137549 419.71490799 197.20760381 419.72740483 C234.4717089 419.83087181 271.73583728 419.92010823 309 420 C305.88051734 421.8177361 303.62024693 422.25034125 300.02625751 422.25168228 C299.01859248 422.25689778 298.01092745 422.26211327 296.97272712 422.26748681 C295.86759952 422.26302537 294.76247191 422.25856392 293.62385559 422.25396729 C292.44820233 422.25708727 291.27254906 422.26020725 290.06126994 422.26342177 C286.79662075 422.27002684 283.53211983 422.26763849 280.26747429 422.26144934 C276.74638773 422.25693051 273.22532145 422.26390622 269.70423889 422.26940918 C262.80221126 422.27831451 255.90022707 422.27637506 248.99819771 422.2705839 C243.38201616 422.26606714 237.76584678 422.26545459 232.14966393 422.26763153 C231.35025941 422.267938 230.5508549 422.26824446 229.72722602 422.26856022 C228.10307958 422.26919969 226.47893315 422.26984811 224.85478672 422.2705054 C209.61083663 422.27621325 194.36691055 422.26964615 179.1229644 422.25890467 C166.07000128 422.24999099 153.01707379 422.25150224 139.96411133 422.26074219 C124.79486161 422.27147526 109.62563305 422.27564048 94.45638007 422.26951766 C92.83423372 422.26888061 91.21208738 422.26825186 89.58994102 422.26763153 C88.7919211 422.26732298 87.99390118 422.26701443 87.17169884 422.26669653 C81.57511654 422.26497701 75.97854775 422.26786906 70.38196754 422.27259064 C63.54203842 422.27823426 56.70215513 422.2766115 49.86223117 422.26602915 C46.37863836 422.26081541 42.89512159 422.25864083 39.41152954 422.26532745 C8.26529131 422.31065535 -18.96465206 420.13537069 -42.0625 397.15625 C-58.24840011 380.21556698 -65.15126567 357.87842092 -65.14717102 334.83927917 C-65.15084771 333.72302149 -65.1545244 332.6067638 -65.1583125 331.45668012 C-65.16931638 327.72005744 -65.17318763 323.9834626 -65.17700195 320.24682617 C-65.18326921 317.56567217 -65.18990395 314.88452109 -65.19691467 312.20336914 C-65.21663089 304.16015591 -65.22673992 296.11694151 -65.23564246 288.07371017 C-65.240034 284.27803957 -65.24539862 280.48237034 -65.25063133 276.68670082 C-65.26764007 264.05482237 -65.28213116 251.42294477 -65.28938007 238.79105663 C-65.29128971 235.51671027 -65.29321008 232.24236391 -65.29516602 228.96801758 C-65.29564976 228.15427861 -65.2961335 227.34053965 -65.2966319 226.50214193 C-65.30492075 213.33915582 -65.33023986 200.17626091 -65.36274669 187.01331457 C-65.39590997 173.47319565 -65.41383724 159.93312294 -65.41702431 146.39296323 C-65.41918104 138.80127223 -65.42780593 131.20971417 -65.45348549 123.61806297 C-65.47531972 117.14857773 -65.4831811 110.67925774 -65.47351871 104.20973983 C-65.46901018 100.91625616 -65.47289208 97.62317949 -65.49028015 94.32972908 C-65.63418089 65.43852659 -60.9794174 41.33560446 -40 20 C-39.31292969 19.30003906 -38.62585938 18.60007812 -37.91796875 17.87890625 C-30.11897526 10.45611653 -11.33012149 -3.37483325 0 0 Z " fill="#028698" transform="translate(352,281)"/>
<path d="M0 0 C3.99070931 7.79910195 7.94897125 15.61382657 11.5 23.625 C11.9846875 24.71039063 12.469375 25.79578125 12.96875 26.9140625 C14.04604768 30.13779419 14.20263558 32.62611764 14 36 C8.67716226 37.45458039 3.62529137 38.36725949 -1.89453125 38.66796875 C-2.60856613 38.71190262 -3.32260101 38.75583649 -4.05827332 38.80110168 C-5.55124671 38.89115904 -7.04444708 38.97752535 -8.5378418 39.06030273 C-10.82478433 39.18818693 -13.11050707 39.33058963 -15.39648438 39.47460938 C-16.85411622 39.56075367 -18.31179729 39.64606998 -19.76953125 39.73046875 C-21.08542236 39.80676514 -22.40131348 39.88306152 -23.75708008 39.96166992 C-27 40 -27 40 -30 39 C-31.11315322 31.73282897 -31.25368436 24.5316124 -31.3125 17.1875 C-31.34150391 15.96095703 -31.37050781 14.73441406 -31.40039062 13.47070312 C-31.40876953 12.29830078 -31.41714844 11.12589844 -31.42578125 9.91796875 C-31.44036377 8.85344482 -31.45494629 7.7889209 -31.4699707 6.69213867 C-31 4 -31 4 -29.09716797 2.16210938 C-21.2645798 -2.17818395 -8.75532736 -0.09141293 0 0 Z " fill="#009FB4" transform="translate(495,424)"/>
<path d="M0 0 C1.41084109 3.28422259 1.12928106 6.8475937 1.1328125 10.375 C1.13474609 12.22351563 1.13474609 12.22351563 1.13671875 14.109375 C1.13285156 15.39328125 1.12898438 16.6771875 1.125 18 C1.13080078 19.92585938 1.13080078 19.92585938 1.13671875 21.890625 C1.13542969 23.12296875 1.13414062 24.3553125 1.1328125 25.625 C1.13168457 26.75164062 1.13055664 27.87828125 1.12939453 29.0390625 C1.0197522 31.54801004 0.73294729 33.61264438 0 36 C-7.82351205 36.89876721 -15.63284503 37.324457 -23.5 37.625 C-24.67820312 37.6765625 -25.85640625 37.728125 -27.0703125 37.78125 C-28.75253906 37.84699219 -28.75253906 37.84699219 -30.46875 37.9140625 C-31.48388672 37.9548291 -32.49902344 37.9955957 -33.54492188 38.03759766 C-36 38 -36 38 -38 37 C-39.32795448 30.05120675 -39.11499493 23.05047231 -39.0625 16 C-39.05798828 14.84371094 -39.05347656 13.68742187 -39.04882812 12.49609375 C-39.03712529 9.66400775 -39.02072996 6.83203189 -39 4 C-32.26449544 0.42585334 -25.31665242 -0.05555273 -17.8125 -0.8125 C-16.54212891 -0.95880859 -15.27175781 -1.10511719 -13.96289062 -1.25585938 C-12.74408203 -1.38412109 -11.52527344 -1.51238281 -10.26953125 -1.64453125 C-9.16198486 -1.76159424 -8.05443848 -1.87865723 -6.91333008 -1.99926758 C-3.88071962 -2.00002999 -2.40572738 -1.83198091 0 0 Z " fill="#009FB3" transform="translate(454,428)"/>
<path d="M0 0 C1.70019374 5.47707704 1.22432139 11.32966745 1.24023438 17.00927734 C1.2500003 19.12506551 1.28107832 21.23990578 1.3125 23.35546875 C1.31902497 24.69791091 1.32427742 26.04035999 1.328125 27.3828125 C1.34214355 29.21416748 1.34214355 29.21416748 1.35644531 31.08251953 C1.23881836 32.04528809 1.12119141 33.00805664 1 34 C-2.55074915 36.3671661 -5.31879818 36.44189319 -9.4375 36.625 C-10.14600098 36.66149658 -10.85450195 36.69799316 -11.58447266 36.7355957 C-25.86676659 37.42190445 -25.86676659 37.42190445 -30 37 C-32.5752212 34.4247788 -32.29798981 33.3965168 -32.3125 29.8125 C-32.18778127 21.87847028 -31.55410813 10.69175072 -27 4 C-19.61465646 -0.90192033 -8.50193517 -0.30124967 0 0 Z " fill="#00A0B4" transform="translate(405,431)"/>
<path d="M0 0 C0.89726303 0.00187317 1.79452606 0.00374634 2.71897888 0.00567627 C4.61273931 0.01238965 6.50648604 0.02628999 8.40014648 0.046875 C11.30140041 0.07804771 14.20211076 0.08784934 17.10351562 0.09375 C18.94401705 0.10291972 20.78451295 0.1132954 22.625 0.125 C23.49379288 0.12924988 24.36258575 0.13349976 25.25770569 0.13787842 C26.06541916 0.14748596 26.87313263 0.15709351 27.70532227 0.16699219 C28.41495621 0.17382019 29.12459015 0.18064819 29.85572815 0.18768311 C31.74609375 0.328125 31.74609375 0.328125 34.74609375 1.328125 C37.23874627 4.93817347 37.85230239 6.63186834 37.18359375 11.015625 C35.70047499 14.4332465 35.00632102 15.65143669 31.74609375 17.328125 C25.38512632 18.96128978 18.87617674 18.28941214 12.37109375 18.078125 C11.06914063 18.05105469 9.7671875 18.02398437 8.42578125 17.99609375 C-5.80629509 17.54589542 -5.80629509 17.54589542 -11.12890625 12.578125 C-12.64213324 9.55167101 -12.93227064 6.67313537 -13.25390625 3.328125 C-9.41531915 -0.66669516 -5.16567614 -0.07358316 0 0 Z " fill="#00A3B8" transform="translate(573.25390625,491.671875)"/>
<path d="M0 0 C2.13157819 3.19736728 2.25107362 3.99521924 2.25726891 7.66328621 C2.2637178 8.62715944 2.27016669 9.59103268 2.276811 10.58411419 C2.2721652 12.17613779 2.2721652 12.17613779 2.26742554 13.80032349 C2.27195665 14.9261197 2.27648776 16.05191591 2.28115618 17.21182716 C2.29387077 21.00470321 2.29217521 24.79743696 2.29052734 28.59033203 C2.29541936 31.30207871 2.30325634 34.01381525 2.31088257 36.72555542 C2.32751539 43.34229224 2.33299334 49.95899344 2.33410732 56.57574941 C2.3350577 61.96026301 2.33916753 67.34476487 2.34550858 72.72927475 C2.36313523 88.0092729 2.37234643 103.28924293 2.37084763 118.56925131 C2.37076772 119.39347358 2.3706878 120.21769584 2.37060547 121.06689453 C2.37052371 121.89212966 2.37044195 122.71736478 2.37035771 123.56760703 C2.36954671 136.90935755 2.38863359 150.25099465 2.4168822 163.59271242 C2.44568606 177.30559801 2.45941805 191.01842848 2.45769465 204.73134506 C2.45703283 212.42421809 2.46243199 220.11697259 2.48405075 227.80981827 C2.50236256 234.36800405 2.50652944 240.92601771 2.4930319 247.48421814 C2.48654907 250.82417944 2.48843111 254.16354536 2.5037384 257.50351715 C2.57778569 274.79027318 2.18451582 291.23273443 -5.8125 307 C-6.15869385 307.70584229 -6.5048877 308.41168457 -6.86157227 309.13891602 C-9.64317116 314.64679971 -12.87035939 319.40467651 -17 324 C-17.68835938 324.82886719 -18.37671875 325.65773438 -19.0859375 326.51171875 C-29.40386176 338.62170354 -46.00936906 349.26585067 -62 352 C-65.05108621 352.19669671 -67.93781922 352.14817004 -71 352 C-71 351.67 -71 351.34 -71 351 C-69.91203125 350.76925781 -68.8240625 350.53851562 -67.703125 350.30078125 C-44.62198545 345.24865239 -26.92635459 335.28619866 -13.33984375 315.59375 C-4.97051534 302.40831189 -0.53106139 287.43637897 -0.60127258 271.89546204 C-0.59462576 270.72633449 -0.58797893 269.55720695 -0.58113068 268.3526513 C-0.56580993 265.13936014 -0.56364389 261.92638427 -0.56726015 258.71306908 C-0.56788776 255.23602839 -0.55122901 251.75906333 -0.53674316 248.28205872 C-0.51402102 242.26847575 -0.50208313 236.25495047 -0.49761391 230.24132729 C-0.49113648 221.54681306 -0.46817122 212.85240282 -0.44127061 204.15793063 C-0.39806271 190.04939355 -0.36806177 175.94086086 -0.34643555 161.83227539 C-0.32540785 148.13270917 -0.29811715 134.43317885 -0.26245117 120.73364258 C-0.26025235 119.88822579 -0.25805352 119.04280901 -0.25578807 118.17177353 C-0.24471797 113.930274 -0.23352524 109.6887748 -0.22227156 105.44727576 C-0.12917142 70.2982145 -0.05753413 35.14913679 0 0 Z " fill="#018B9B" transform="translate(735,349)"/>
<path d="M0 0 C4.16960522 1.76049998 6.27128428 3.81468826 8 8 C8.69935156 12.61401458 8.39758778 16.06653303 6.5625 20.375 C3.12348898 23.89788934 -0.15653446 25.25744779 -5 26 C-10.04235373 25.22425327 -12.96803306 23.07149846 -16 19 C-17.32966448 14.57866168 -17.34667732 11.08081753 -15.9375 6.6875 C-11.50349821 0.53711043 -7.214564 -0.80161822 0 0 Z " fill="#00A3B9" transform="translate(541,479)"/>
<path d="M0 0 C2.76686495 3.43472891 3.83117343 6.61050918 4 11 C3.13118732 15.18609745 2.03440985 18.82291293 -0.8125 22.0625 C-3.81317461 23.3485034 -5.76223361 23.46253806 -9 23 C-11.88595644 21.22907219 -13.57622844 19.67418203 -15.375 16.8125 C-16.42153902 12.10307442 -16.34580845 7.41542486 -13.953125 3.12109375 C-12.24980502 0.93937217 -10.53038645 -0.72625216 -8.0625 -2 C-4.95673165 -2 -2.81224004 -1.31636768 0 0 Z " fill="#00A3B8" transform="translate(633,481)"/>
<path d="M0 0 C11.64015563 1.25931508 19.99199186 11.37570829 27 20 C31.79212846 26.42103178 35.74301249 33.43829413 39.29296875 40.61328125 C42.50693181 46.69010216 45.27944507 49.08675717 51.53515625 51.82421875 C57.66049112 54.74612968 61.02360424 59.10055319 63.4375 65.375 C65.61909922 73.21225769 65.23773757 81.16553773 64.94116211 89.24169922 C64.76832904 95.08372772 64.85493201 98.87826078 68 104 C68.65617296 107.02386373 68.40555103 108.80628564 68 112 C65.46546343 115.21954645 63.88702695 116.70432435 60 118 C58.27450203 118.0902505 56.54568107 118.1219602 54.81782532 118.12025452 C53.20874298 118.12231651 53.20874298 118.12231651 51.56715393 118.12442017 C50.39039597 118.12082489 49.213638 118.11722961 48.0012207 118.11352539 C46.76207916 118.11367142 45.52293762 118.11381744 44.24624634 118.1139679 C40.84774828 118.11339015 37.44931079 118.10837098 34.05082345 118.10139394 C30.49939416 118.09514741 26.94796409 118.09455557 23.39653015 118.09336853 C16.67113007 118.09025905 9.94574623 118.08205082 3.22035331 118.07201904 C-4.43615843 118.06084601 -12.09267093 118.05534445 -19.74918878 118.05032361 C-35.49946859 118.0398679 -51.2497322 118.02227586 -67 118 C-67 117.67 -67 117.34 -67 117 C-66.36831154 116.99668985 -65.73662308 116.99337971 -65.08579254 116.98996925 C-49.69435302 116.90864391 -34.30302136 116.81652046 -18.91172028 116.71247292 C-11.46851137 116.66241435 -4.0253131 116.61597084 3.41796875 116.578125 C9.9077735 116.54511791 16.397494 116.50523895 22.8872056 116.45720994 C26.32142148 116.43203131 29.7555821 116.4102249 33.18986511 116.39665604 C37.02969398 116.37975503 40.86925452 116.35070965 44.70898438 116.31884766 C45.83971375 116.31668747 46.97044312 116.31452728 48.13543701 116.31230164 C54.10180191 116.24912977 59.28260789 115.7338437 65 114 C66.1843465 109.36130955 66.24658099 107.02004263 64 102.75 C61.70266712 98.11599634 61.94852984 94.79710869 62.62890625 89.75390625 C64.09218579 78.89483179 63.26767515 67.87827666 56.63671875 58.87109375 C53.4425219 55.21949401 50.12919146 53.37983065 45.57421875 51.84765625 C41.30233992 50.02382141 39.70926831 46.84951744 37.75 42.8125 C34.57634231 36.7401233 31.15952126 31.00436651 27.25 25.375 C26.80237305 24.7250708 26.35474609 24.0751416 25.89355469 23.40551758 C18.87436889 13.36266247 11.26102089 6.11864586 0 1 C0 0.67 0 0.34 0 0 Z " fill="#018292" transform="translate(580,414)"/>
<path d="M0 0 C0.68139542 0.02265427 1.36279083 0.04530853 2.06483459 0.06864929 C3.49613142 0.11827064 4.92725404 0.17317644 6.3581543 0.2331543 C8.52561806 0.32381977 10.69317128 0.39871786 12.86132812 0.47070312 C19.48505146 0.70535585 26.04043836 1.01146517 32.59765625 2.01171875 C32.59765625 2.34171875 32.59765625 2.67171875 32.59765625 3.01171875 C18.07765625 3.01171875 3.55765625 3.01171875 -11.40234375 3.01171875 C-10.74234375 4.66171875 -10.08234375 6.31171875 -9.40234375 8.01171875 C-9.06976562 8.86507813 -8.7371875 9.7184375 -8.39453125 10.59765625 C-3.3682659 24.15683981 -3.3682659 24.15683981 4.59765625 36.01171875 C7.12513224 36.2435382 9.62587436 36.39814691 12.16015625 36.51171875 C13.40780762 36.57153931 13.40780762 36.57153931 14.68066406 36.63256836 C31.30804893 37.36512147 47.95918004 37.63511277 64.59765625 38.01171875 C64.59765625 38.34171875 64.59765625 38.67171875 64.59765625 39.01171875 C56.84380567 39.10443949 49.09008519 39.17549383 41.33581924 39.21896744 C37.73507339 39.23983388 34.13470709 39.26813296 30.53417969 39.31347656 C27.05877712 39.35697 23.58373937 39.38086296 20.10808563 39.39122772 C18.13819841 39.4022049 16.16845778 39.43342575 14.1987915 39.46490479 C12.39737701 39.46535797 12.39737701 39.46535797 10.55957031 39.46582031 C8.97405365 39.47914398 8.97405365 39.47914398 7.35650635 39.49273682 C3.8833818 38.88718175 2.77946205 37.72240298 0.59765625 35.01171875 C-0.61490604 32.93959254 -1.7480474 30.81995831 -2.8203125 28.671875 C-3.12302567 28.0679039 -3.42573883 27.4639328 -3.73762512 26.84165955 C-4.37249169 25.57027427 -5.00342729 24.29691923 -5.63061523 23.02172852 C-6.58762902 21.07871529 -7.55937828 19.14361698 -8.53320312 17.20898438 C-13.68232352 6.85872552 -13.68232352 6.85872552 -14.40234375 2.01171875 C-9.37804457 0.35876026 -5.34979071 -0.1964078 0 0 Z " fill="#018A9A" transform="translate(527.40234375,421.98828125)"/>
<path d="M0 0 C0.90437805 0.00424484 1.8087561 0.00848969 2.74053955 0.01286316 C5.62420639 0.02963301 8.50717 0.06728206 11.390625 0.10546875 C13.34764614 0.12051778 15.30467826 0.1342058 17.26171875 0.14648438 C22.05495775 0.17953101 26.84767221 0.2313017 31.640625 0.29296875 C32.135625 1.28296875 32.135625 1.28296875 32.640625 2.29296875 C18.780625 2.29296875 4.920625 2.29296875 -9.359375 2.29296875 C-9.359375 2.95296875 -9.359375 3.61296875 -9.359375 4.29296875 C-10.019375 4.29296875 -10.679375 4.29296875 -11.359375 4.29296875 C-10.37179105 9.39583094 -10.37179105 9.39583094 -7.046875 13.16796875 C-0.41438328 15.94436063 6.44524744 15.47656246 13.515625 15.48046875 C15.25392578 15.49883789 15.25392578 15.49883789 17.02734375 15.51757812 C22.9539101 15.52773795 28.0589966 15.35149934 33.640625 13.29296875 C33.640625 9.66296875 33.640625 6.03296875 33.640625 2.29296875 C36.640625 4.29296875 36.640625 4.29296875 37.515625 6.54296875 C37.68911326 10.35971042 36.81824241 12.16264372 34.640625 15.29296875 C28.35831458 19.23767529 21.90019376 18.58092237 14.6796875 18.25683594 C12.64594234 18.16820049 10.61307575 18.11162818 8.578125 18.05859375 C-5.9099676 17.51241566 -5.9099676 17.51241566 -11.234375 12.54296875 C-12.74760199 9.51651476 -13.03773939 6.63797912 -13.359375 3.29296875 C-9.51139807 -0.73625347 -5.18550944 -0.09163836 0 0 Z " fill="#018B9C" transform="translate(573.359375,491.70703125)"/>
<path d="M0 0 C0.33 0 0.66 0 1 0 C2.76071913 16.27687015 -6.02114812 33.7470199 -15.92626953 46.21337891 C-27.79355837 60.43824115 -43.66222147 71.23097042 -62 75 C-65.09502282 75.25827729 -67.89084375 75.21079025 -71 75 C-71 74.67 -71 74.34 -71 74 C-69.36804688 73.65388672 -69.36804688 73.65388672 -67.703125 73.30078125 C-44.62198545 68.24865239 -26.92635459 58.28619866 -13.33984375 38.59375 C-6.07424845 27.14718553 -1.49682503 13.47142524 0 0 Z " fill="#028293" transform="translate(735,626)"/>
<path d="M0 0 C5.45169413 -0.29659476 9.73378098 0.62901756 14.75 2.625 C15.4510083 2.89860352 16.1520166 3.17220703 16.87426758 3.45410156 C37.26870594 11.59971927 55.4399725 25.85457953 64.47265625 46.33984375 C65.72920106 49.53798842 66.89670047 52.74612834 68 56 C68.2475 56.71542969 68.495 57.43085938 68.75 58.16796875 C69.91802868 61.8423923 70.18738868 65.15853205 70 69 C68.30912982 65.99315846 67.34442367 62.9297197 66.40405273 59.62036133 C62.11310379 44.69324263 55.00402447 33.78141079 44 23 C43.27425781 22.28714844 42.54851563 21.57429688 41.80078125 20.83984375 C30.14703342 10.0843564 15.03452267 5.12003746 0 1 C0 0.67 0 0.34 0 0 Z " fill="#018395" transform="translate(665,279)"/>
<path d="M0 0 C3.31399839 1.71316866 5.42467934 4.05856619 7.375 7.25 C8.26764737 11.17764842 8.1572203 14.99088245 8 19 C6.07347072 16.11020609 5.66829127 14.84996657 5.125 11.5625 C4.49947426 8.62587152 4.01820344 7.02696806 2.3125 4.5 C-0.86582009 2.43838697 -3.22469699 2.06623339 -7 2 C-10.10578468 2.98820422 -11.44421719 4.01124781 -13.04296875 6.85546875 C-15.43037108 12.74578455 -15.29205894 18.06635209 -13 24 C-11.06303626 26.38766999 -10.20946315 26.93948842 -7.1875 27.8125 C-3.47324977 28.03098531 -1.36859968 27.57679134 2 26 C4.83459483 23.50041345 4.83459483 23.50041345 7 21 C6.79803569 24.63535761 6.21677989 25.7994786 3.5 28.3125 C-0.86868376 30.41882967 -4.23559605 30.98867774 -9 30 C-12.31280551 28.28381201 -14.42429238 25.94206701 -16.375 22.75 C-17.92342842 15.93691495 -17.50861048 10.17031497 -14 4 C-10.04128797 -0.54087556 -5.72249959 -1.16867949 0 0 Z " fill="#018A9A" transform="translate(492,514)"/>
<path d="M0 0 C4.00257615 0.65380726 6.19611333 2.42362209 8.7734375 5.4453125 C10.4489647 9.50185203 10.61706874 12.99442401 9.9609375 17.3203125 C8.47686438 20.80465808 7.26574442 22.62210462 3.90234375 24.421875 C0.20565719 25.85566574 -2.33723714 26.42828563 -6.2890625 25.8203125 C-9.69677747 23.96155888 -11.70459779 22.45516511 -14.0390625 19.3203125 C-15.43745478 14.31697389 -15.59167119 9.97506952 -13.0390625 5.3203125 C-12.3790625 5.3203125 -11.7190625 5.3203125 -11.0390625 5.3203125 C-11.2040625 5.8153125 -11.3690625 6.3103125 -11.5390625 6.8203125 C-12.40359918 11.1429959 -12.6253679 15.46367873 -11.2890625 19.6953125 C-9.65745246 21.81640556 -8.59971062 22.48983203 -6.0390625 23.3203125 C-1.80661726 23.7820338 0.23200711 23.79570188 3.8359375 21.4453125 C6.68035158 18.60089842 7.16447922 16.9315693 7.3359375 13.0078125 C7.27788743 9.40870807 7.01575096 8.40424561 4.9609375 5.2578125 C0.3840262 2.30189062 -3.2112277 2.75474554 -8.5390625 3.8203125 C-9.0340625 3.9853125 -9.5290625 4.1503125 -10.0390625 4.3203125 C-7.13826322 0.45258013 -4.82827888 -0.26923488 0 0 Z " fill="#028A9A" transform="translate(539.0390625,478.6796875)"/>
<path d="M0 0 C16.87225882 1.83516245 37.28429802 8.26824044 50 20 C50 21.32 50 22.64 50 24 C47.70704764 23.71861942 45.41564544 23.4245814 43.125 23.125 C41.84882812 22.96257813 40.57265625 22.80015625 39.2578125 22.6328125 C36 22 36 22 34 20 C37.3 20 40.6 20 44 20 C44 19.34 44 18.68 44 18 C43.32453125 17.74863281 42.6490625 17.49726562 41.953125 17.23828125 C39.1201434 16.05037759 36.44431493 14.67456724 33.73388672 13.23291016 C25.94399715 9.12802373 18.2386022 6.27989437 9.7421875 4.0078125 C6.44331802 3.11939045 3.22764384 2.11610114 0 1 C0 0.67 0 0.34 0 0 Z " fill="#018C9E" transform="translate(638,553)"/>
<path d="M0 0 C8.78409052 -0.47913221 15.50929771 1.15654613 22.16918945 7.06054688 C25.71427817 10.81600557 28.20288182 15.25693471 30.8125 19.6875 C31.94394814 21.56644375 33.07545592 23.4453516 34.20703125 25.32421875 C34.6966333 26.15010498 35.18623535 26.97599121 35.69067383 27.8269043 C36.74709875 29.58025843 37.86451849 31.29677774 39 33 C38.67 34.32 38.34 35.64 38 37 C35.03 36.67 32.06 36.34 29 36 C29 35.67 29 35.34 29 35 C31.64 35 34.28 35 37 35 C34.75581018 31.26730778 32.50363605 27.53949533 30.25 23.8125 C29.61578125 22.75740234 28.9815625 21.70230469 28.328125 20.61523438 C27.709375 19.59365234 27.090625 18.57207031 26.453125 17.51953125 C25.88754883 16.58214111 25.32197266 15.64475098 24.73925781 14.67895508 C20.79927319 8.61025052 17.57368615 4.95534184 10.44921875 3.05078125 C9.20785156 2.80714844 7.96648438 2.56351562 6.6875 2.3125 C5.43324219 2.06113281 4.17898438 1.80976563 2.88671875 1.55078125 C1.45779297 1.27814453 1.45779297 1.27814453 0 1 C0 0.67 0 0.34 0 0 Z " fill="#028D9E" transform="translate(571,426)"/>
<path d="M0 0 C2.68756955 -0.02720824 5.37485798 -0.0469388 8.0625 -0.0625 C8.81466797 -0.07087891 9.56683594 -0.07925781 10.34179688 -0.08789062 C19.634668 -0.1281195 19.634668 -0.1281195 24 1 C27.39296167 4.73777485 27.35399996 8.22660168 27.25 13.125 C27.23453125 14.34445312 27.2190625 15.56390625 27.203125 16.8203125 C27 20 27 20 26 23 C23.36 23 20.72 23 18 23 C21 21 21 21 24 20 C24 14.72 24 9.44 24 4 C20.66986981 3.33397396 17.89176307 2.85066433 14.57421875 2.68359375 C13.77822266 2.64169922 12.98222656 2.59980469 12.16210938 2.55664062 C11.34548828 2.51732422 10.52886719 2.47800781 9.6875 2.4375 C8.85154297 2.39431641 8.01558594 2.35113281 7.15429688 2.30664062 C5.10303065 2.20114693 3.0515352 2.10012685 1 2 C0.67 1.34 0.34 0.68 0 0 Z " fill="#0293A5" transform="translate(451,375)"/>
<path d="M0 0 C1.2375 -0.04125 2.475 -0.0825 3.75 -0.125 C4.79414063 -0.15980469 4.79414063 -0.15980469 5.859375 -0.1953125 C8.38822696 0.03542217 9.86888917 0.62365759 12 2 C15.66467114 6.61477106 16.64021196 11.75509456 16.390625 17.53125 C15.77353178 21.43127912 14.46688226 24.89355567 12 28 C8.30010809 30.30398949 5.33294568 30.38008295 1 30 C-1.9375 28.5 -1.9375 28.5 -4 27 C-3.67 26.34 -3.34 25.68 -3 25 C-2.195625 25.53625 -1.39125 26.0725 -0.5625 26.625 C4.18471895 28.45725994 7.26552752 27.46242594 12 26 C13.76833312 18.48140378 15.06995618 11.95093639 11 5 C7.93999869 2.1949988 6.35531888 2.0174747 2.1875 1.8125 C0.6096875 1.9053125 0.6096875 1.9053125 -1 2 C-0.67 1.34 -0.34 0.68 0 0 Z " fill="#028B9B" transform="translate(393,514)"/>
<path d="M0 0 C2.33294775 -0.04241723 4.66702567 -0.04092937 7 0 C8 1 8 1 8.11352539 4.14282227 C8.11336633 5.53402697 8.10767506 6.92523761 8.09765625 8.31640625 C8.0962413 9.04746078 8.09482635 9.77851532 8.09336853 10.53172302 C8.08775408 12.87535632 8.07519922 15.21889539 8.0625 17.5625 C8.05748686 19.14778508 8.05292363 20.73307166 8.04882812 22.31835938 C8.03777997 26.2122761 8.02050572 30.10612205 8 34 C6.02 34 4.04 34 2 34 C2.99 33.34 3.98 32.68 5 32 C5.51254128 28.7998894 5.51254128 28.7998894 5.51171875 25.0234375 C5.52966995 24.33819 5.54762115 23.6529425 5.56611633 22.94692993 C5.62033708 20.75634941 5.65415053 18.5659881 5.6875 16.375 C5.72066294 14.89059441 5.75515165 13.40621779 5.79101562 11.921875 C5.87606815 8.28146088 5.94282356 4.64097056 6 1 C4.02 1 2.04 1 0 1 C0 0.67 0 0.34 0 0 Z " fill="#028EA1" transform="translate(419,369)"/>
<path d="M0 0 C-3.61514801 2.41009868 -6.26517643 2.28977565 -10.44140625 2.265625 C-11.52662819 2.26849518 -11.52662819 2.26849518 -12.6337738 2.27142334 C-14.1610448 2.27278285 -15.68832745 2.26910274 -17.21557617 2.26074219 C-19.55739158 2.25002338 -21.89844258 2.26065291 -24.24023438 2.2734375 C-25.72396003 2.27211617 -27.20768521 2.26955432 -28.69140625 2.265625 C-29.74455772 2.27169769 -29.74455772 2.27169769 -30.81898499 2.27789307 C-35.77006447 2.22993553 -35.77006447 2.22993553 -38 0 C-25.21819692 -0.93036641 -12.78180308 -0.93036641 0 0 Z " fill="#018D9F" transform="translate(547,607)"/>
<path d="M0 0 C7.91012347 0.20347584 14.39916418 2.52242164 19.9375 8.3125 C24.04697536 13.99836141 25.57298259 18.32219154 24.9375 25.3125 C24.6075 25.3125 24.2775 25.3125 23.9375 25.3125 C23.76734375 24.66023437 23.5971875 24.00796875 23.421875 23.3359375 C21.286783 15.63597806 18.73867431 9.95720441 11.9375 5.3125 C7.97891018 3.41625243 4.48975747 2.95203076 0.125 2.6875 C-1.03644531 2.61273438 -2.19789063 2.53796875 -3.39453125 2.4609375 C-4.27496094 2.41195313 -5.15539062 2.36296875 -6.0625 2.3125 C-3.71017727 -0.03982273 -3.19969668 0.01692961 0 0 Z " fill="#018B9C" transform="translate(397.0625,500.6875)"/>
<path d="M0 0 C1.32 0.33 2.64 0.66 4 1 C3.21625 1.4125 2.4325 1.825 1.625 2.25 C-1.2065998 4.1377332 -2.04557385 4.7896575 -3 8 C-3.44138729 12.63456659 -3.59355266 14.90421048 -1.375 19 C0.88486551 21.24974665 0.88486551 21.24974665 4.0625 21.5 C7.25486678 20.95661842 8.07440805 20.50326953 10 18 C10.66 17.34 11.32 16.68 12 16 C11.67842796 18.97454134 11.37860258 20.59335278 9.3125 22.8125 C6.24756099 24.3863876 4.40910465 24.48701495 1 24 C-1.88595644 22.22907219 -3.57622844 20.67418203 -5.375 17.8125 C-6.42460344 13.0892845 -6.42469314 8.29638039 -3.8125 4.0859375 C-2.4375 2.4375 -2.4375 2.4375 0 0 Z " fill="#018898" transform="translate(623,480)"/>
<path d="M0 0 C1.89510699 -0.08160748 3.79124504 -0.13946459 5.6875 -0.1875 C6.74324219 -0.22230469 7.79898438 -0.25710938 8.88671875 -0.29296875 C12.45721925 0.04302565 14.18201711 0.80769662 17 3 C22.64876157 10.87538981 25.26916723 21.42331331 25 31 C21.80839635 27.5308656 21.54548236 24.59763707 21 20 C19.75324108 14.72525074 18.21136448 9.43188307 15 5 C10.14694335 2.10683161 5.52334817 1.48450423 0 1 C0 0.67 0 0.34 0 0 Z " fill="#018999" transform="translate(508,366)"/>
<path d="M0 0 C0.66 0.33 1.32 0.66 2 1 C1.14535156 1.43570313 0.29070312 1.87140625 -0.58984375 2.3203125 C-1.69457031 2.91585937 -2.79929687 3.51140625 -3.9375 4.125 C-5.59072266 4.99511719 -5.59072266 4.99511719 -7.27734375 5.8828125 C-10.24555428 7.76623547 -10.24555428 7.76623547 -10.87890625 10.9765625 C-11.02658369 14.61332884 -11.02658369 14.61332884 -11 18.25 C-11 22 -11 22 -12 24 C-11.34 24.33 -10.68 24.66 -10 25 C-11.32 25 -12.64 25 -14 25 C-14.1081866 22.41554227 -14.18737237 19.83562648 -14.25 17.25 C-14.28351563 16.52039063 -14.31703125 15.79078125 -14.3515625 15.0390625 C-14.41403126 11.6032808 -14.35022958 9.48338138 -12.3046875 6.66015625 C-9.89647362 4.92542591 -7.53640113 3.5023116 -4.875 2.1875 C-4.00617188 1.74792969 -3.13734375 1.30835938 -2.2421875 0.85546875 C-1.50226563 0.57316406 -0.76234375 0.29085937 0 0 Z " fill="#0190A1" transform="translate(349,565)"/>
<path d="M0 0 C0.99 0.33 1.98 0.66 3 1 C1.9171875 1.556875 0.834375 2.11375 -0.28125 2.6875 C-1.68837776 3.45672984 -3.09458099 4.22765261 -4.5 5 C-5.57314453 5.54333984 -5.57314453 5.54333984 -6.66796875 6.09765625 C-8.73683794 7.2601637 -10.37139077 8.26946112 -12 10 C-12.65497969 12.8921181 -12.34034279 14.98553531 -12 18 C-12.5 21 -12.5 21 -13 23 C-12.4225 22.649375 -11.845 22.29875 -11.25 21.9375 C-9 21 -9 21 -5 22 C-9.455 23.485 -9.455 23.485 -14 25 C-16.36884198 20.26231604 -15.20960006 13.96840399 -14 9 C-11.40342717 6.05614891 -8.53443796 4.61643238 -5 3 C-4.05125 2.360625 -3.1025 1.72125 -2.125 1.0625 C-1.42375 0.711875 -0.7225 0.36125 0 0 Z " fill="#018C9C" transform="translate(350,599)"/>
<path d="M0 0 C0 0.33 0 0.66 0 1 C-11.88 1.33 -23.76 1.66 -36 2 C-30.61324467 -0.69337767 -25.63340344 -0.78765416 -19.6875 -1.25 C-18.57181641 -1.353125 -17.45613281 -1.45625 -16.30664062 -1.5625 C-10.34580323 -2.04304172 -5.60886312 -2.16908415 0 0 Z " fill="#028C9D" transform="translate(656,570)"/>
<path d="M0 0 C0 0.33 0 0.66 0 1 C-17.325 1.495 -17.325 1.495 -35 2 C-30.49182669 -0.25408666 -26.93936414 -0.73372378 -22 -1.25 C-21.15655029 -1.34007324 -20.31310059 -1.43014648 -19.4440918 -1.52294922 C-12.70862911 -2.14151868 -6.57372572 -1.70575717 0 0 Z " fill="#028C9F" transform="translate(429,570)"/>
<path d="M0 0 C0.74886475 0.00523682 1.49772949 0.01047363 2.26928711 0.01586914 C3.07817383 0.0190918 3.88706055 0.02231445 4.72045898 0.02563477 C5.5705957 0.03401367 6.42073242 0.04239258 7.29663086 0.05102539 C8.15063477 0.05553711 9.00463867 0.06004883 9.88452148 0.06469727 C12.00108749 0.07652166 14.11761771 0.0944577 16.23413086 0.11352539 C16.23413086 0.44352539 16.23413086 0.77352539 16.23413086 1.11352539 C7.81913086 1.60852539 7.81913086 1.60852539 -0.76586914 2.11352539 C-0.43586914 3.43352539 -0.10586914 4.75352539 0.23413086 6.11352539 C3.53413086 6.77352539 6.83413086 7.43352539 10.23413086 8.11352539 C10.23413086 8.44352539 10.23413086 8.77352539 10.23413086 9.11352539 C6.27413086 9.11352539 2.31413086 9.11352539 -1.76586914 9.11352539 C-3.13210588 6.38105191 -2.89429514 4.13153637 -2.76586914 1.11352539 C-1.76586914 0.11352539 -1.76586914 0.11352539 0 0 Z " fill="#008B9E" transform="translate(541.765869140625,389.886474609375)"/>
<path d="M0 0 C0 4.29 0 8.58 0 13 C-0.33 13 -0.66 13 -1 13 C-1 9.37 -1 5.74 -1 2 C-2.258125 2.165 -3.51625 2.33 -4.8125 2.5 C-10.2144509 3.11073012 -15.57060338 3.09133564 -21 3 C-14.21955895 -0.54137686 -7.4989454 -0.09145055 0 0 Z " fill="#018B9B" transform="translate(405,431)"/>
<path d="M0 0 C-0.51949219 0.29132813 -1.03898437 0.58265625 -1.57421875 0.8828125 C-9.01856135 5.25859983 -12.92140835 9.89844302 -16 18 C-16.33 18 -16.66 18 -17 18 C-16.72962699 11.51104785 -14.40201195 7.71862998 -10 3 C-6.65742585 -0.00585292 -4.44708501 -1.44100823 0 0 Z " fill="#028A9B" transform="translate(480,504)"/>
<path d="M0 0 C3 2 3 2 3.875 4.25 C4.04848826 8.06674167 3.17761741 9.86967497 1 13 C-1.30126288 14.36749102 -3.44055521 15.1307546 -6 16 C-6.33 15.01 -6.66 14.02 -7 13 C-4.69 12.34 -2.38 11.68 0 11 C0 7.37 0 3.74 0 0 Z " fill="#0192A3" transform="translate(607,494)"/>
<path d="M0 0 C-2.53188326 2.53188326 -4.89965012 3.24553109 -8.25 4.5 C-9.36890625 4.9228125 -10.4878125 5.345625 -11.640625 5.78125 C-14.74498008 6.90748115 -17.86162915 7.97289681 -21 9 C-21 8.34 -21 7.68 -21 7 C-18.44225544 5.82181449 -15.87965758 4.65734345 -13.3125 3.5 C-12.59126953 3.16613281 -11.87003906 2.83226562 -11.12695312 2.48828125 C-7.28539628 0.76922841 -4.30557312 -0.47556626 0 0 Z " fill="#028E9E" transform="translate(361,580)"/>
<path d="M0 0 C1.9375 0.625 1.9375 0.625 4 2 C4.8125 5.0625 4.8125 5.0625 5 8 C4.67 8.33 4.34 8.66 4 9 C2.47480724 8.91062197 0.95318071 8.75462854 -0.5625 8.5625 C-1.38878906 8.46066406 -2.21507812 8.35882813 -3.06640625 8.25390625 C-3.70449219 8.17011719 -4.34257813 8.08632813 -5 8 C-5 7.67 -5 7.34 -5 7 C-2.36 7 0.28 7 3 7 C2.505 6.21625 2.01 5.4325 1.5 4.625 C0 2 0 2 0 0 Z " fill="#008D9E" transform="translate(561,392)"/>
<path d="M0 0 C0.33 0 0.66 0 1 0 C1.02705729 1.77074917 1.04642195 3.54161711 1.0625 5.3125 C1.07410156 6.29863281 1.08570313 7.28476562 1.09765625 8.30078125 C1 11 1 11 0 14 C-2.64 14 -5.28 14 -8 14 C-5 12 -5 12 -2.859375 11.1953125 C-0.74646502 10.13525457 -0.74646502 10.13525457 -0.390625 7.6171875 C-0.34421875 6.71226562 -0.2978125 5.80734375 -0.25 4.875 C-0.19328125 3.96492188 -0.1365625 3.05484375 -0.078125 2.1171875 C-0.05234375 1.41851562 -0.0265625 0.71984375 0 0 Z " fill="#018797" transform="translate(477,384)"/>
<path d="M0 0 C0.99 0 1.98 0 3 0 C4.45184478 4.53701494 5.23509196 8.18061476 5 13 C1.83420413 9.55891753 1.5070394 6.56335459 1 2 C0.67 1.34 0.34 0.68 0 0 Z " fill="#0191A2" transform="translate(528,384)"/>
<path d="M0 0 C2.55694972 3.83542457 2.04045639 5.65902533 1.625 10.1875 C1.51414062 11.45980469 1.40328125 12.73210938 1.2890625 14.04296875 C1.19367187 15.01878906 1.09828125 15.99460937 1 17 C0.34 16.67 -0.32 16.34 -1 16 C-1.02712153 14.083412 -1.04645097 12.1667127 -1.0625 10.25 C-1.07410156 9.18265625 -1.08570313 8.1153125 -1.09765625 7.015625 C-1.01510087 4.46631499 -0.74617558 2.42066409 0 0 Z " fill="#018695" transform="translate(687,599)"/>
<path d="M0 0 C1.8828125 0.23046875 1.8828125 0.23046875 4 1 C5.1171875 2.92578125 5.1171875 2.92578125 5.875 5.3125 C6.14054688 6.09238281 6.40609375 6.87226563 6.6796875 7.67578125 C7.06413673 10.46538234 6.47230195 11.65183959 5 14 C4.89042969 13.40832031 4.78085937 12.81664062 4.66796875 12.20703125 C3.74085597 7.58654237 2.77648665 3.9123221 0 0 Z " fill="#038898" transform="translate(630,481)"/>
<path d="M0 0 C1.051875 0.474375 2.10375 0.94875 3.1875 1.4375 C6.10175851 2.69323741 8.84746914 3.52234381 12 4 C12 4.33 12 4.66 12 5 C7.04230204 5.29162929 3.97193147 5.12940055 0 2 C0 1.34 0 0.68 0 0 Z " fill="#018495" transform="translate(389,539)"/>
<path d="M0 0 C2.5654594 2.5654594 2.54046087 4.47686668 3 8 C2.01 8.33 1.02 8.66 0 9 C0 6.03 0 3.06 0 0 Z " fill="#0190A2" transform="translate(512,522)"/>
<path d="M0 0 C2 1 2 1 2 1 Z " fill="#039BB2" transform="translate(660,703)"/>
<path d="M0 0 C2 1 2 1 2 1 Z " fill="#03A7BE" transform="translate(652,591)"/>
<path d="M0 0 C2 1 2 1 2 1 Z " fill="#02A9BE" transform="translate(401,568)"/>
<path d="" fill="#01A9BB" transform="translate(0,0)"/>
<path d="M0 0 C2 1 2 1 2 1 Z " fill="#00A7BD" transform="translate(616,457)"/>
<path d="M0 0 C2 1 2 1 2 1 Z " fill="#00A7BD" transform="translate(571,414)"/>
<path d="" fill="#009DB5" transform="translate(0,0)"/>
<path d="" fill="#009EB0" transform="translate(0,0)"/>
<path d="" fill="#00A7B9" transform="translate(0,0)"/>
<path d="" fill="#01ABBD" transform="translate(0,0)"/>
<path d="" fill="#03AAC0" transform="translate(0,0)"/>
<path d="" fill="#02AAC0" transform="translate(0,0)"/>
<path d="" fill="#01A9BE" transform="translate(0,0)"/>
<path d="" fill="#00ABC0" transform="translate(0,0)"/>
<path d="" fill="#01A6BC" transform="translate(0,0)"/>
<path d="" fill="#02AABE" transform="translate(0,0)"/>
<path d="" fill="#03A7BC" transform="translate(0,0)"/>
<path d="" fill="#01ABC1" transform="translate(0,0)"/>
<path d="" fill="#01A8BE" transform="translate(0,0)"/>
<path d="" fill="#00A9C0" transform="translate(0,0)"/>
<path d="" fill="#00AAC0" transform="translate(0,0)"/>
<path d="" fill="#03AABD" transform="translate(0,0)"/>
<path d="" fill="#00A8C2" transform="translate(0,0)"/>
<path d="" fill="#00ABBC" transform="translate(0,0)"/>
<path d="" fill="#02A9BB" transform="translate(0,0)"/>
<path d="" fill="#04A9BE" transform="translate(0,0)"/>
<path d="" fill="#01A9BE" transform="translate(0,0)"/>
<path d="" fill="#02ADC1" transform="translate(0,0)"/>
<path d="" fill="#02ACBF" transform="translate(0,0)"/>
<path d="" fill="#01ACBF" transform="translate(0,0)"/>
<path d="" fill="#04ABBE" transform="translate(0,0)"/>
<path d="" fill="#02AABE" transform="translate(0,0)"/>
<path d="" fill="#02ABC0" transform="translate(0,0)"/>
<path d="" fill="#01A7BB" transform="translate(0,0)"/>
<path d="" fill="#02A8BD" transform="translate(0,0)"/>
<path d="" fill="#00A8BD" transform="translate(0,0)"/>
<path d="" fill="#02A8BD" transform="translate(0,0)"/>
<path d="" fill="#00A8BC" transform="translate(0,0)"/>
<path d="" fill="#03A6BA" transform="translate(0,0)"/>
<path d="" fill="#02A5BA" transform="translate(0,0)"/>
<path d="" fill="#04A7BC" transform="translate(0,0)"/>
<path d="" fill="#00ABBE" transform="translate(0,0)"/>
<path d="" fill="#02A8BA" transform="translate(0,0)"/>
<path d="" fill="#02A9BF" transform="translate(0,0)"/>
<path d="" fill="#00ABC0" transform="translate(0,0)"/>
<path d="" fill="#02A8BE" transform="translate(0,0)"/>
<path d="" fill="#00ACC1" transform="translate(0,0)"/>
<path d="" fill="#01ACBF" transform="translate(0,0)"/>
<path d="" fill="#02AEC0" transform="translate(0,0)"/>
<path d="" fill="#01A8BC" transform="translate(0,0)"/>
<path d="" fill="#00A6BB" transform="translate(0,0)"/>
</svg>
